<svg width="48" height="47" viewBox="0 0 48 47" fill="none" xmlns="http://www.w3.org/2000/svg">
<g clip-path="url(#clip0_21_506)">
<path d="M33.5403 28.6503L31.8848 27.0635C31.9531 26.8805 32.0512 26.7255 32.1203 26.5716C32.1754 26.4029 32.2724 26.22 32.3128 26.0381L34.6447 26.0094C35.043 26.0047 35.3655 25.6791 35.3468 25.3022L35.3101 21.2351C35.3046 20.8438 34.9735 20.5263 34.5907 20.5451L32.2588 20.5737C32.2136 20.3922 32.1265 20.2262 32.0534 20.0447C31.9946 19.8779 31.8925 19.6971 31.8058 19.5586L33.4205 17.9321C33.7012 17.6489 33.7104 17.2157 33.4077 16.9258L30.4424 14.0825C30.1543 13.8062 29.7135 13.7981 29.4192 14.0954L27.8044 15.7222C27.6185 15.6542 27.4613 15.5587 27.304 15.4904C27.1325 15.436 26.9466 15.3405 26.7614 15.3015L26.7327 13.0093C26.7276 12.6184 26.3966 12.3006 26.0137 12.3193L21.8625 12.37C21.4642 12.3745 21.1416 12.7003 21.1604 13.0773L21.189 15.3691C21.0046 15.4136 20.8352 15.4992 20.6508 15.5716C20.481 15.6296 20.2973 15.7296 20.1566 15.8152L18.5011 14.2284C18.2131 13.9524 17.7722 13.944 17.4779 14.2412L14.5714 17.1698C14.2764 17.4391 14.2815 17.8862 14.5556 18.1485L16.2107 19.7357C16.1424 19.9183 16.0447 20.0733 15.9752 20.2276C15.9062 20.382 15.8235 20.5789 15.7827 20.7611L13.4795 20.817C13.0816 20.8214 12.7587 21.1472 12.7774 21.5242L12.8285 25.6046C12.834 25.9958 13.165 26.3133 13.5478 26.2945L15.8797 26.2659C15.9249 26.4474 16.0124 26.6134 16.0851 26.7949C16.1439 26.9621 16.246 27.1425 16.3327 27.281L14.718 28.9079C14.4373 29.1908 14.4285 29.6239 14.7309 29.9138L17.7105 32.7707C17.9985 33.047 18.4394 33.0551 18.7337 32.7578L20.3484 31.1314C20.5343 31.199 20.6916 31.2945 20.8488 31.3628C21.0061 31.4308 21.2063 31.5127 21.3915 31.5517L21.4201 33.8439C21.4253 34.2352 21.7563 34.5526 22.1391 34.5339L26.2904 34.4832C26.6886 34.4788 27.0112 34.1529 26.9925 33.7759L26.9638 31.4841C27.1483 31.4396 27.3176 31.354 27.5021 31.2816C27.6718 31.2236 27.8555 31.1236 27.9962 31.038L29.6517 32.6248C29.9398 32.9008 30.3807 32.9092 30.6749 32.612L33.5814 29.6834C33.8195 29.3601 33.8283 28.9266 33.5403 28.6503Z" fill="#94027C"/>
<path d="M22.0886 35.2878C21.7502 35.2878 21.3942 35.1471 21.1271 34.8957C20.8398 34.6253 20.6727 34.2454 20.6675 33.8534L20.6447 32.0943C20.6124 32.0807 20.5808 32.0671 20.5499 32.0535C20.5363 32.0477 20.5228 32.0418 20.5092 32.0363L19.267 33.2891C18.6883 33.87 17.7764 33.8792 17.1875 33.3141L14.2082 30.4579C13.9187 30.1802 13.7563 29.8135 13.7523 29.4248C13.7472 29.0342 13.9 28.6624 14.1836 28.3781L15.4107 27.141C15.3971 27.1087 15.3854 27.0764 15.374 27.0448L15.3648 27.026L13.5554 27.0477C13.2071 27.0686 12.818 26.9235 12.5344 26.6572C12.2467 26.3871 12.0799 26.008 12.0744 25.6152L12.0233 21.5338C12.0053 21.181 12.1416 20.8144 12.4087 20.53C12.6817 20.239 13.0686 20.0697 13.4694 20.0645L15.2414 20.0208C15.2564 19.9863 15.2708 19.9528 15.2858 19.9198C15.2888 19.9131 15.2921 19.9073 15.295 19.901L14.0323 18.6912C13.7501 18.4204 13.5906 18.0394 13.5958 17.6481C13.6013 17.2568 13.7707 16.8792 14.0624 16.6135L16.9421 13.7107C17.5185 13.1306 18.4311 13.1192 19.0212 13.6853L20.2913 14.9025C20.3302 14.8867 20.3684 14.8724 20.4063 14.8599L20.428 14.85L20.4063 13.0868C20.3883 12.7341 20.5242 12.3678 20.7913 12.0831C21.0647 11.7921 21.4515 11.6228 21.8516 11.6176L26.0036 11.5669C26.3626 11.5522 26.7417 11.6918 27.0246 11.9575C27.312 12.2279 27.4791 12.6078 27.4843 12.9998L27.5063 14.7659C27.5137 14.7681 27.5206 14.7703 27.5272 14.7725C27.5522 14.7798 27.5768 14.789 27.6018 14.8004C27.6154 14.8063 27.6283 14.8114 27.6415 14.8177L28.8841 13.5648C29.4601 12.9847 30.3731 12.9733 30.9635 13.5391L33.9281 16.3821C34.218 16.6595 34.3796 17.0269 34.3844 17.4152C34.3888 17.8054 34.236 18.1764 33.9538 18.4608L32.726 19.6986C32.7396 19.7317 32.7513 19.7633 32.7627 19.7948L32.7719 19.8147L34.5813 19.7926C34.9274 19.7746 35.3195 19.9168 35.6031 20.1847C35.89 20.4547 36.0576 20.835 36.0616 21.227L36.0991 25.2952C36.1171 25.6461 35.9808 26.0124 35.7137 26.2967C35.4407 26.5881 35.0538 26.7571 34.653 26.7626L32.8432 26.7843C32.841 26.7905 32.8388 26.7971 32.8366 26.803C32.8281 26.8295 32.8186 26.8559 32.8064 26.8813C32.8042 26.8875 32.8013 26.8927 32.7987 26.8978L34.0615 28.108C34.6093 28.6338 34.6625 29.4839 34.1886 30.1298C34.1669 30.16 34.1419 30.1882 34.1155 30.2147L31.2097 33.1432C30.6303 33.7248 29.7184 33.7333 29.1299 33.1679L27.8605 31.9514C27.8208 31.9672 27.7822 31.9815 27.7448 31.9944L27.7231 32.0039L27.7448 33.7671C27.7628 34.1198 27.6264 34.4865 27.3593 34.7708C27.0864 35.0618 26.6995 35.2312 26.2994 35.2363L22.1481 35.287C22.1287 35.2878 22.1081 35.2878 22.0886 35.2878ZM20.3468 30.3789C20.4327 30.3789 20.5198 30.3936 20.604 30.4237C20.7458 30.4752 20.8736 30.5384 20.9971 30.6001C21.0474 30.6255 21.097 30.6504 21.1459 30.6721C21.2197 30.7037 21.4122 30.7875 21.5478 30.8158C21.891 30.8896 22.1375 31.1912 22.1423 31.5421L22.1705 33.834L26.2391 33.7315L26.2105 31.4933C26.2061 31.1416 26.4453 30.8349 26.7869 30.7518C26.8773 30.7302 26.9607 30.6908 27.0489 30.6541L27.2263 30.581C27.3435 30.5398 27.471 30.4759 27.6055 30.3947C27.8961 30.2191 28.2709 30.2584 28.5167 30.4947L30.1722 32.0815L32.9923 29.2095C32.9982 29.1966 33.0019 29.186 33.0034 29.1779L31.3633 27.6054C31.1458 27.3967 31.0734 27.0778 31.1803 26.7957C31.2332 26.6557 31.2979 26.5278 31.3618 26.4051C31.3813 26.3662 31.4022 26.3276 31.4202 26.2894C31.4445 26.2207 31.4724 26.1509 31.5011 26.0792C31.5286 26.0116 31.5609 25.9426 31.5767 25.8731C31.6528 25.5314 31.953 25.2879 32.3031 25.2831L34.5935 25.2555L34.556 21.2406L32.266 21.324C31.8923 21.3464 31.6109 21.0914 31.5271 20.7519C31.5062 20.6649 31.4662 20.5844 31.4294 20.4999L31.3541 20.3261C31.3247 20.2449 31.2799 20.138 31.166 19.9561C30.9808 19.6596 31.0238 19.275 31.27 19.0266L32.8847 17.3994L29.9209 14.6226L28.3377 16.2494C28.1316 16.4577 27.8223 16.5272 27.546 16.4262C27.4045 16.3751 27.2767 16.3119 27.154 16.2502C27.1128 16.23 27.0728 16.209 27.0331 16.1906C26.9622 16.1668 26.8898 16.1388 26.8163 16.1095C26.7454 16.0815 26.6749 16.0492 26.6025 16.0341C26.2593 15.9607 26.0128 15.6587 26.008 15.3082L25.9794 13.0163L21.9112 13.1184L21.9398 15.357C21.9442 15.7079 21.7051 16.0154 21.3641 16.0984C21.2737 16.1201 21.1896 16.1591 21.1007 16.1969L20.924 16.2696C20.8064 16.3112 20.6793 16.3751 20.5448 16.4563C20.2549 16.6326 19.8802 16.5926 19.6336 16.3563L17.9789 14.7695L15.137 17.6632L16.7297 19.1901C16.9472 19.3984 17.0196 19.7173 16.9127 19.9995C16.8601 20.1387 16.7962 20.2659 16.733 20.3871C16.7073 20.4367 16.6816 20.4848 16.6599 20.533C16.6283 20.6031 16.5438 20.792 16.5163 20.9198C16.4424 21.2586 16.1466 21.5029 15.7998 21.5113L13.5282 21.5668L13.5793 25.5946L15.8696 25.5134C16.2205 25.5278 16.5258 25.746 16.6088 26.0855C16.6298 26.1718 16.6698 26.2523 16.7066 26.336L16.7819 26.5106C16.8113 26.5918 16.8561 26.6987 16.9707 26.8813C17.1548 27.1778 17.1122 27.5624 16.866 27.8101L15.252 29.4365L18.2309 32.2266L19.814 30.6001C19.957 30.4561 20.1506 30.3789 20.3468 30.3789ZM26.2406 33.8046V33.8145V33.8046ZM34.5949 25.329V25.3397V25.329ZM13.5267 21.4849V21.4948C13.5267 21.4919 13.5267 21.4878 13.5267 21.4849ZM21.9097 13.038V13.0479C21.9097 13.045 21.9097 13.042 21.9097 13.038Z" fill="#2D0E52" fill-opacity="0.8"/>
<path d="M27.991 23.3406C27.9788 22.3637 27.5982 21.3916 26.8259 20.6557C26.054 19.9198 25.0503 19.5722 24.051 19.5843C23.052 19.5964 22.0571 19.9679 21.3046 20.7229C20.5522 21.4775 20.1962 22.4585 20.2083 23.4354C20.2204 24.412 20.6011 25.3841 21.3733 26.12C22.1452 26.8559 23.149 27.2035 24.1483 27.1914C25.1473 27.1792 26.1422 26.8078 26.8946 26.0531C27.6471 25.2981 27.9902 24.3043 27.991 23.3406Z" fill="white"/>
<path d="M23.4312 4.13991H24.936V9.11047H23.4312V4.13991Z" fill="#94027C"/>
<path d="M26.1701 2.8217C26.1701 1.73456 25.2685 0.853165 24.1564 0.853165C23.0443 0.853165 22.1431 1.73456 22.1431 2.8217C22.1431 3.90847 23.0443 4.78986 24.1564 4.78986C25.2685 4.78986 26.1701 3.90847 26.1701 2.8217Z" fill="white"/>
<path d="M24.1564 5.54154C22.6321 5.54154 21.3906 4.32104 21.3906 2.82094C21.3906 1.32048 22.6321 0.100708 24.1564 0.100708C25.6808 0.100708 26.9226 1.32121 26.9226 2.82168C26.9226 4.32177 25.6808 5.54154 24.1564 5.54154ZM24.1564 1.60558C23.4613 1.60558 22.8955 2.15117 22.8955 2.82168C22.8955 3.49182 23.4613 4.03741 24.1564 4.03741C24.8515 4.03741 25.4177 3.49182 25.4177 2.82168C25.4177 2.15117 24.8515 1.60558 24.1564 1.60558Z" fill="#94027C"/>
<path d="M6.63257 14.3136L7.44342 13.0457L11.9393 15.921L11.1284 17.1889L6.63257 14.3136Z" fill="#94027C"/>
<path d="M6.86113 11.3384C5.8978 10.795 4.66701 11.1172 4.11077 12.0585C3.55489 12.9998 3.88518 14.2038 4.8474 14.7468C5.80999 15.2902 7.04152 14.9679 7.59777 14.0267C8.15364 13.0854 7.82408 11.8825 6.86113 11.3384Z" fill="white"/>
<path d="M5.84798 15.7619C5.38138 15.7619 4.90964 15.6462 4.47794 15.4022C3.83169 15.0374 3.37023 14.4459 3.17992 13.7364C2.99181 13.0351 3.09174 12.3036 3.46208 11.676C4.22444 10.385 5.91668 9.94118 7.23014 10.683C7.8775 11.0478 8.33859 11.6393 8.5289 12.3495C8.71701 13.0509 8.61635 13.7824 8.24601 14.4099C7.73458 15.2766 6.80286 15.7619 5.84798 15.7619ZM5.85423 11.8267C5.41628 11.8267 4.99194 12.0471 4.75864 12.4413C4.59514 12.7176 4.55142 13.0387 4.63372 13.3473C4.71786 13.6626 4.92544 13.9275 5.21679 14.0924C5.8241 14.4323 6.60042 14.2354 6.94945 13.6446C7.11294 13.3676 7.1574 13.0464 7.0751 12.7386C6.99096 12.4226 6.78265 12.1584 6.4913 11.9938C6.4913 11.9938 6.4913 11.9938 6.49056 11.9938C6.2896 11.8807 6.06989 11.8267 5.85423 11.8267Z" fill="#94027C"/>
<path d="M6.50635 32.3306L11.0015 29.4553L11.8127 30.7239L7.31757 33.5988L6.50635 32.3306Z" fill="#94027C"/>
<path d="M4.75186 31.943C3.7889 32.4864 3.45935 33.6903 4.01522 34.6316C4.57147 35.5729 5.80299 35.8955 6.76558 35.3517C7.72854 34.8083 8.0581 33.6044 7.50222 32.6631C6.94671 31.7225 5.71519 31.4 4.75186 31.943Z" fill="white"/>
<path d="M5.76544 36.3676C4.80983 36.3676 3.8792 35.8815 3.36741 35.0144C2.99707 34.3876 2.89641 33.6565 3.08452 32.9551C3.27409 32.2457 3.73518 31.6534 4.38328 31.2886C5.696 30.5472 7.38751 30.9914 8.15134 32.281C8.52168 32.9085 8.62161 33.64 8.4335 34.341C8.24319 35.0508 7.78284 35.642 7.13548 36.0071C6.70451 36.2515 6.23204 36.3676 5.76544 36.3676ZM5.75956 32.4312C5.54279 32.4312 5.32382 32.4856 5.12212 32.5984C4.83004 32.7641 4.62245 33.0283 4.53832 33.3442C4.45602 33.6517 4.50048 33.9732 4.66397 34.2491C5.01227 34.8392 5.78711 35.0401 6.39663 34.6977C6.68872 34.5331 6.89556 34.2682 6.9797 33.9519C7.062 33.6444 7.01827 33.3229 6.85478 33.0463C6.62185 32.652 6.1964 32.4312 5.75956 32.4312ZM4.75251 31.943H4.76023H4.75251Z" fill="#94027C"/>
<path d="M23.1858 37.7413H24.6907V42.7119H23.1858V37.7413Z" fill="#94027C"/>
<path d="M25.9787 44.0308C25.9787 42.944 25.0775 42.0626 23.9654 42.0626C22.8533 42.0626 21.9517 42.944 21.9517 44.0308C21.9517 45.1179 22.8533 45.9993 23.9654 45.9993C25.0775 45.9993 25.9787 45.1179 25.9787 44.0308Z" fill="white"/>
<path d="M23.9654 46.7518C22.441 46.7518 21.1992 45.5312 21.1992 44.0308C21.1992 42.5307 22.4403 41.3102 23.9654 41.3102C25.4905 41.3102 26.7312 42.5307 26.7312 44.0308C26.7312 45.5312 25.4897 46.7518 23.9654 46.7518ZM23.9654 42.8158C23.2703 42.8158 22.7041 43.3614 22.7041 44.0315C22.7041 44.702 23.2703 45.2469 23.9654 45.2469C24.6605 45.2469 25.2263 44.7013 25.2263 44.0308C25.2263 43.3606 24.6605 42.8158 23.9654 42.8158Z" fill="#94027C"/>
<path d="M36.1902 30.9312L37.001 29.6633L41.4966 32.5385L40.6861 33.8061L36.1902 30.9312Z" fill="#94027C"/>
<path d="M41.2606 35.5141C42.224 36.0575 43.4548 35.7352 44.011 34.794C44.5669 33.8527 44.2366 32.6487 43.2744 32.1057C42.311 31.5623 41.0803 31.8845 40.524 32.8258C39.9681 33.7671 40.2977 34.97 41.2606 35.5141Z" fill="white"/>
<path d="M42.2609 36.5285C41.7943 36.5285 41.3225 36.4124 40.8916 36.1688C40.2442 35.8039 39.7831 35.2124 39.5928 34.5022C39.4047 33.8009 39.5054 33.0694 39.8757 32.4419C40.637 31.1516 42.3277 30.7059 43.6438 31.4495C44.29 31.8143 44.7515 32.4059 44.9418 33.1153C45.1299 33.8167 45.03 34.5478 44.6596 35.1757C44.1471 36.0431 43.2158 36.5285 42.2609 36.5285ZM42.2668 32.5932C41.8299 32.5932 41.4045 32.8129 41.1723 33.2079C41.0088 33.4849 40.9643 33.806 41.0466 34.1139C41.1308 34.4299 41.3391 34.694 41.6304 34.8586H41.6312C42.2399 35.2018 43.0155 35.0001 43.3631 34.4111C43.5266 34.1348 43.5703 33.8137 43.488 33.5051C43.4039 33.1899 43.1963 32.925 42.9049 32.76C42.7032 32.6465 42.4835 32.5932 42.2668 32.5932Z" fill="#94027C"/>
<path d="M36.3057 16.1293L40.8008 13.254L41.612 14.5227L37.1169 17.3976L36.3057 16.1293Z" fill="#94027C"/>
<path d="M43.3701 14.9095C44.333 14.3662 44.6626 13.1622 44.1067 12.2209C43.5505 11.2796 42.3189 10.9571 41.3564 11.5008C40.3934 12.0442 40.0638 13.2482 40.6197 14.1894C41.1752 15.13 42.4068 15.4526 43.3701 14.9095Z" fill="white"/>
<path d="M42.3691 15.9236C41.4143 15.9236 40.4836 15.4375 39.9704 14.5715C39.6 13.944 39.5001 13.2125 39.6882 12.5115C39.8785 11.8017 40.3389 11.2105 40.9862 10.8453C42.3001 10.1021 43.9931 10.5474 44.7543 11.8388C45.1246 12.4656 45.2253 13.1967 45.0372 13.8981C44.8476 14.6075 44.3865 15.1998 43.7384 15.5646C43.3075 15.8078 42.8357 15.9236 42.3691 15.9236ZM42.3625 11.9876C42.1465 11.9876 41.9268 12.042 41.7251 12.1548C41.433 12.3194 41.2262 12.5843 41.142 12.9006C41.0597 13.2081 41.1034 13.5296 41.2669 13.8062C41.6152 14.3955 42.3916 14.595 42.9996 14.2541C43.2917 14.0884 43.4993 13.8242 43.5834 13.5083C43.6657 13.2007 43.6212 12.8793 43.4578 12.6034C43.2256 12.208 42.8001 11.9876 42.3625 11.9876Z" fill="#94027C"/>
</g>
<defs>
<clipPath id="clip0_21_506">
<rect width="46.6511" height="46.6511" fill="white" transform="translate(0.734619 0.100708)"/>
</clipPath>
</defs>
</svg>
