<svg width="88" height="33" viewBox="0 0 88 33" fill="none" xmlns="http://www.w3.org/2000/svg">
<path d="M19.2682 1.66631C18.4459 2.69422 18.9999 5.13838 18.9999 6.37692C18.9999 8.36279 18.1071 10.1287 17.9415 12.1161C17.7236 14.7312 17.9266 17.4374 17.9266 20.0616C17.9266 24.1095 18.8904 27.2574 21.2658 30.4965C23.1263 33.0335 23.8041 30.5136 23.8298 28.2306C23.8727 24.4147 23.509 20.5893 23.2931 16.8118C23.1982 15.1503 21.3129 13.501 19.7453 13.1447C16.5399 12.4162 12.8556 11.9711 9.54888 12.459C8.18798 12.6598 7.5589 13.7892 6.50785 14.546C4.98087 15.6454 3.80608 17.1097 3.03451 18.8243C2.33709 20.3741 1.63883 21.6315 1.27549 23.2666C1.09159 24.0941 0.535949 26.204 1.84195 26.3672C3.65392 26.5937 5.01278 26.6678 6.80599 26.084C10.3263 24.9378 13.9698 24.3974 17.4496 23.1026C22.2726 21.308 26.8986 19.0971 31.7603 17.4379C35.6137 16.1229 39.836 14.7499 43.835 14.0093C49.8666 12.8923 55.709 11.3491 61.634 9.92479C64.7328 9.17988 67.7485 8.30604 70.7869 7.36078C73.1386 6.62915 75.2062 5.30615 77.495 4.4092C80.0364 3.41323 82.6771 2.68222 85.2169 1.66631C85.9167 1.38637 86.6563 0.861328 87.4231 0.861328" stroke="black" stroke-opacity="0.5" stroke-linecap="round"/>
</svg>
